# xmcd
#
# Track frame offsets: 
#        150
#        29830
#        49979
#        80332
#        105514
#        135190
#        157418
#        179322
#        197356
#        217404
#
# Disc length: 3229 seconds
#
# Revision: 3
# Processed by: cddbd v1.5.2PL0 Copyright (c) Steve Scherf et al.
# Submitted via: ExactAudioCopy v1.0b3
#
DISCID=8e0c9b0a
DTITLE=Various Artist - Buddha Club
DYEAR=2007
DGENRE=Chillout
TTITLE0=Naked Rhythm - Sari Sky
TTITLE1=Bellyhouse - Illuminator
TTITLE2=Raw Artistic Soul feat. Edisney Portales Vega - Pa El Bembe
TTITLE3=Dublex Inc. - Nifty Night
TTITLE4=Paul Murphy - Seven Samurai
TTITLE5=Planalto - 40 Degrees
TTITLE6=Harem - Sunshine
TTITLE7=Kaya Project - Dark Tabla (Funky House Mix)
TTITLE8=Aïwa - Skimalja (Rcola Remix)
TTITLE9=Shri - Mela
EXTD=
EXTT0=
EXTT1=
EXTT2=
EXTT3=
EXTT4=
EXTT5=
EXTT6=
EXTT7=
EXTT8=
EXTT9=
PLAYORDER=
